<mxfile host="app.diagrams.net" agent="Mozilla/5.0 (X11; Linux x86_64) AppleWebKit/537.36 (KHTML, like Gecko) Chrome/131.0.0.0 Safari/537.36" version="24.8.6">
  <diagram name="Page-1" id="e49LQZYkjlyZj6pPPBTd">
    <mxGraphModel dx="989" dy="512" grid="1" gridSize="10" guides="1" tooltips="1" connect="1" arrows="1" fold="1" page="1" pageScale="1" pageWidth="850" pageHeight="1100" math="0" shadow="0">
      <root>
        <mxCell id="0" />
        <mxCell id="1" parent="0" />
        <mxCell id="sJNKGmIzPlTzmjAxjKeb-1" value="" style="rounded=0;whiteSpace=wrap;html=1;" vertex="1" parent="1">
          <mxGeometry x="255" y="445" width="340" height="210" as="geometry" />
        </mxCell>
        <mxCell id="sJNKGmIzPlTzmjAxjKeb-2" value="" style="endArrow=none;html=1;rounded=0;entryX=1;entryY=0.5;entryDx=0;entryDy=0;" edge="1" parent="1" target="sJNKGmIzPlTzmjAxjKeb-1">
          <mxGeometry width="50" height="50" relative="1" as="geometry">
            <mxPoint x="330" y="550" as="sourcePoint" />
            <mxPoint x="310" y="570" as="targetPoint" />
          </mxGeometry>
        </mxCell>
        <mxCell id="sJNKGmIzPlTzmjAxjKeb-3" value="NodeMCU&lt;br&gt;ESP32S" style="rounded=1;whiteSpace=wrap;html=1;" vertex="1" parent="1">
          <mxGeometry x="395" y="450" width="60" height="60" as="geometry" />
        </mxCell>
        <mxCell id="sJNKGmIzPlTzmjAxjKeb-5" value="" style="endArrow=none;html=1;rounded=0;" edge="1" parent="1">
          <mxGeometry width="50" height="50" relative="1" as="geometry">
            <mxPoint x="370" y="580" as="sourcePoint" />
            <mxPoint x="370" y="445" as="targetPoint" />
          </mxGeometry>
        </mxCell>
        <mxCell id="sJNKGmIzPlTzmjAxjKeb-6" value="" style="endArrow=none;html=1;rounded=0;" edge="1" parent="1">
          <mxGeometry width="50" height="50" relative="1" as="geometry">
            <mxPoint x="480" y="655" as="sourcePoint" />
            <mxPoint x="480" y="445" as="targetPoint" />
          </mxGeometry>
        </mxCell>
        <mxCell id="sJNKGmIzPlTzmjAxjKeb-9" value="Bedroom" style="text;html=1;align=center;verticalAlign=middle;whiteSpace=wrap;rounded=0;" vertex="1" parent="1">
          <mxGeometry x="280" y="480" width="60" height="30" as="geometry" />
        </mxCell>
        <mxCell id="sJNKGmIzPlTzmjAxjKeb-10" value="Controller&lt;br&gt;Room" style="text;html=1;align=center;verticalAlign=middle;whiteSpace=wrap;rounded=0;" vertex="1" parent="1">
          <mxGeometry x="395" y="516" width="60" height="30" as="geometry" />
        </mxCell>
        <mxCell id="sJNKGmIzPlTzmjAxjKeb-11" value="Garage" style="text;html=1;align=center;verticalAlign=middle;whiteSpace=wrap;rounded=0;" vertex="1" parent="1">
          <mxGeometry x="510" y="480" width="60" height="30" as="geometry" />
        </mxCell>
        <mxCell id="sJNKGmIzPlTzmjAxjKeb-12" value="Living&lt;br&gt;Room" style="text;html=1;align=center;verticalAlign=middle;whiteSpace=wrap;rounded=0;" vertex="1" parent="1">
          <mxGeometry x="280" y="590" width="60" height="30" as="geometry" />
        </mxCell>
        <mxCell id="sJNKGmIzPlTzmjAxjKeb-13" value="Main&lt;br&gt;Hall" style="text;html=1;align=center;verticalAlign=middle;whiteSpace=wrap;rounded=0;" vertex="1" parent="1">
          <mxGeometry x="395" y="590" width="60" height="30" as="geometry" />
        </mxCell>
        <mxCell id="sJNKGmIzPlTzmjAxjKeb-14" value="Power&lt;br&gt;Room" style="text;html=1;align=center;verticalAlign=middle;whiteSpace=wrap;rounded=0;" vertex="1" parent="1">
          <mxGeometry x="510" y="590" width="60" height="30" as="geometry" />
        </mxCell>
        <mxCell id="sJNKGmIzPlTzmjAxjKeb-15" value="" style="endArrow=none;html=1;rounded=0;" edge="1" parent="1">
          <mxGeometry width="50" height="50" relative="1" as="geometry">
            <mxPoint x="370" y="655" as="sourcePoint" />
            <mxPoint x="370" y="621" as="targetPoint" />
          </mxGeometry>
        </mxCell>
        <mxCell id="sJNKGmIzPlTzmjAxjKeb-16" value="" style="endArrow=none;html=1;rounded=0;" edge="1" parent="1">
          <mxGeometry width="50" height="50" relative="1" as="geometry">
            <mxPoint x="255" y="549" as="sourcePoint" />
            <mxPoint x="293" y="549" as="targetPoint" />
          </mxGeometry>
        </mxCell>
      </root>
    </mxGraphModel>
  </diagram>
</mxfile>
